<svg xmlns="http://www.w3.org/2000/svg" viewBox="0 0 448 512">
  <defs>
    <clipPath id="clip-yfdxVWtU1HzK">
      <path fill="currentColor" d="M208 0L332.1 0c12.7 0 24.9 5.1 33.9 14.1l67.9 67.9c9 9 14.1 21.2 14.1 33.9L448 336c0 26.5-21.5 48-48 48l-192 0c-26.5 0-48-21.5-48-48l0-288c0-26.5 21.5-48 48-48zM48 128l80 0 0 64-64 0 0 256 192 0 0-32 64 0 0 48c0 26.5-21.5 48-48 48L48 512c-26.5 0-48-21.5-48-48L0 176c0-26.5 21.5-48 48-48z"></path>
    </clipPath>
    <mask x="0" y="0" width="100%" height="100%" id="mask-kl9stzPXYuzA" maskUnits="userSpaceOnUse" maskContentUnits="userSpaceOnUse">
      <rect x="0" y="0" width="100%" height="100%" fill="white"></rect>
      <g transform="translate(224 256)">
        <g transform="translate(80, -48)  scale(0.3125, 0.3125)  rotate(0 0 0)">
          <path fill="black" d="M593.8 59.1H46.2C20.7 59.1 0 79.8 0 105.2v301.5c0 25.5 20.7 46.2 46.2 46.2h547.7c25.5 0 46.2-20.7 46.1-46.1V105.2c0-25.4-20.7-46.1-46.2-46.1zM338.5 360.6H277v-120l-61.5 76.9-61.5-76.9v120H92.3V151.4h61.5l61.5 76.9 61.5-76.9h61.5v209.2zm135.3 3.1L381.5 256H443V151.4h61.5V256H566z" transform="translate(-320 -256)"></path>
        </g>
      </g>
    </mask>
  </defs>
  <rect fill="currentColor" clip-path="url(#clip-yfdxVWtU1HzK)" mask="url(#mask-kl9stzPXYuzA)" x="0" y="0" width="100%" height="100%"></rect>
</svg>